<mxfile host="app.diagrams.net" modified="2023-04-09T15:12:35.247Z" agent="Mozilla/5.0 (Windows NT 10.0; Win64; x64) AppleWebKit/537.36 (KHTML, like Gecko) Chrome/111.0.0.0 Safari/537.36" etag="-bHzlbxaByA4BGpigjfP" version="21.1.5" type="device">
  <diagram id="Tiu21w8Bhk6jvydIlu63" name="Page-1">
    <mxGraphModel dx="794" dy="470" grid="1" gridSize="10" guides="1" tooltips="1" connect="1" arrows="1" fold="1" page="1" pageScale="1" pageWidth="850" pageHeight="1100" math="0" shadow="0">
      <root>
        <mxCell id="0" />
        <mxCell id="1" parent="0" />
        <mxCell id="nhqhqG061xYtldZPVwqN-1" value="User" style="shape=umlActor;verticalLabelPosition=bottom;verticalAlign=top;html=1;outlineConnect=0;" parent="1" vertex="1">
          <mxGeometry x="70" y="230" width="30" height="60" as="geometry" />
        </mxCell>
        <mxCell id="nhqhqG061xYtldZPVwqN-2" value="" style="endArrow=classic;html=1;rounded=0;" parent="1" edge="1">
          <mxGeometry width="50" height="50" relative="1" as="geometry">
            <mxPoint x="120" y="259.5" as="sourcePoint" />
            <mxPoint x="180" y="259.5" as="targetPoint" />
          </mxGeometry>
        </mxCell>
        <mxCell id="nhqhqG061xYtldZPVwqN-3" value="iRetail Single Page Application" style="rounded=0;whiteSpace=wrap;html=1;fillColor=#f5f5f5;fontColor=#333333;strokeColor=#666666;" parent="1" vertex="1">
          <mxGeometry x="190" y="230" width="120" height="60" as="geometry" />
        </mxCell>
        <mxCell id="nhqhqG061xYtldZPVwqN-4" value="" style="endArrow=classic;html=1;rounded=0;startArrow=classic;startFill=1;exitX=1;exitY=0.5;exitDx=0;exitDy=0;entryX=0;entryY=0.5;entryDx=0;entryDy=0;" parent="1" source="nhqhqG061xYtldZPVwqN-3" target="nhqhqG061xYtldZPVwqN-5" edge="1">
          <mxGeometry width="50" height="50" relative="1" as="geometry">
            <mxPoint x="330" y="259.5" as="sourcePoint" />
            <mxPoint x="390" y="259.5" as="targetPoint" />
          </mxGeometry>
        </mxCell>
        <mxCell id="nhqhqG061xYtldZPVwqN-5" value="iRetail API ecosystem" style="rounded=0;whiteSpace=wrap;html=1;fillColor=#f5f5f5;fontColor=#333333;strokeColor=#666666;" parent="1" vertex="1">
          <mxGeometry x="400" y="230" width="240" height="60" as="geometry" />
        </mxCell>
        <mxCell id="nhqhqG061xYtldZPVwqN-6" value="" style="endArrow=classic;html=1;rounded=0;startArrow=classic;startFill=1;" parent="1" edge="1">
          <mxGeometry width="50" height="50" relative="1" as="geometry">
            <mxPoint x="519.5" y="300" as="sourcePoint" />
            <mxPoint x="519.5" y="340" as="targetPoint" />
          </mxGeometry>
        </mxCell>
        <mxCell id="nhqhqG061xYtldZPVwqN-7" value="" style="rounded=0;whiteSpace=wrap;html=1;dashed=1;fillColor=#f5f5f5;fontColor=#333333;strokeColor=#666666;" parent="1" vertex="1">
          <mxGeometry x="400" y="350" width="250" height="120" as="geometry" />
        </mxCell>
        <mxCell id="nhqhqG061xYtldZPVwqN-8" value="ETL Job" style="rounded=0;whiteSpace=wrap;html=1;fillColor=#f5f5f5;strokeColor=#666666;fontColor=#333333;" parent="1" vertex="1">
          <mxGeometry x="410" y="365" width="120" height="30" as="geometry" />
        </mxCell>
        <mxCell id="nhqhqG061xYtldZPVwqN-9" value="Database" style="shape=cylinder3;whiteSpace=wrap;html=1;boundedLbl=1;backgroundOutline=1;size=15;fillColor=#f5f5f5;fontColor=#333333;strokeColor=#666666;" parent="1" vertex="1">
          <mxGeometry x="570" y="359" width="60" height="50" as="geometry" />
        </mxCell>
        <mxCell id="nhqhqG061xYtldZPVwqN-11" value="Logs" style="rounded=0;whiteSpace=wrap;html=1;fillColor=#f5f5f5;fontColor=#333333;strokeColor=#666666;" parent="1" vertex="1">
          <mxGeometry x="544" y="420" width="100" height="30" as="geometry" />
        </mxCell>
        <mxCell id="nhqhqG061xYtldZPVwqN-12" value="" style="endArrow=classic;html=1;rounded=0;startArrow=classic;startFill=1;" parent="1" edge="1">
          <mxGeometry width="50" height="50" relative="1" as="geometry">
            <mxPoint x="249.5" y="180" as="sourcePoint" />
            <mxPoint x="249.5" y="220" as="targetPoint" />
          </mxGeometry>
        </mxCell>
        <mxCell id="nhqhqG061xYtldZPVwqN-13" value="Identity Provider" style="rounded=0;whiteSpace=wrap;html=1;fillColor=#f5f5f5;fontColor=#333333;strokeColor=#666666;" parent="1" vertex="1">
          <mxGeometry x="190" y="110" width="120" height="60" as="geometry" />
        </mxCell>
        <mxCell id="nhqhqG061xYtldZPVwqN-14" value="BLOB Storage" style="rounded=0;whiteSpace=wrap;html=1;fillColor=#f5f5f5;fontColor=#333333;strokeColor=#666666;" parent="1" vertex="1">
          <mxGeometry x="410" y="420" width="120" height="30" as="geometry" />
        </mxCell>
      </root>
    </mxGraphModel>
  </diagram>
</mxfile>
